<svg height="48.674" viewBox="0 0 103.849 48.674" width="103.849" xmlns="http://www.w3.org/2000/svg"><g fill-rule="evenodd"><g fill="#402f25"><path d="m168.082 306.551h91.653c7.619-.559 8.668 21.044 0 21.634h-91.653c-8.343 0-7.872-21.634 0-21.634z" transform="translate(-162 -294.837)"/><path d="m274.5 279.358a141.351 141.351 0 0 1 17.99.038c.136-1.318-1.014-2.208-3.038-2.807a25.575 25.575 0 0 0 -12.753.229c-1.609.644-2.34 1.487-2.2 2.54z" transform="translate(-231.535 -275.89)"/><path d="m232.985 294.1h49.692c.075-.821 0-1.847-1.682-2.667-10.752-3.726-37.081-3.4-46.844.344a3.471 3.471 0 0 0 -.55.5 1.949 1.949 0 0 0 -.325.469 1.792 1.792 0 0 0 -.162.479c-.031.165-.12.686-.128.879z" transform="translate(-205.881 -283.867)"/><path d="m257.279 390.375h31.149a2.376 2.376 0 0 1 -1.1 2.326c-6.739 3.726-23.242 3.4-29.355-.344a3.262 3.262 0 0 1 -.347-.5 2.344 2.344 0 0 1 -.205-.467 2.9 2.9 0 0 1 -.1-.485c-.018-.164-.031-.342-.036-.535z" transform="translate(-220.899 -346.661)"/><path d="m276.437 367.728c-1.564 3.548-5.391 7.03-9.5 7.03h-51.454c-4.115 0-7.409-3.481-8.976-7.03z" transform="translate(-189.513 -332.661)"/></g><path d="m197.255 329.974-.072-8.048c1.456-6.512 14.783-6.491 15.908 0v8.048h-4v-3.808h-7.834v3.808zm4-6.181v-1.87c1.116-2.407 6.9-2.424 7.838 0v1.87z" fill="#fff" transform="translate(-183.749 -301.334)"/><path d="m357.307 318.649v12.313h4.026v-4.674h7.859v4.674h4.027v-12.313h-4.029v4.687h-7.859v-4.687z" fill="#fff" transform="translate(-282.733 -302.323)"/><path d="m305.343 318.649v7.824c.831 4.58 7.459 5.881 11.941 3.537v.948h3.9c0-4.037 0-8.273 0-12.31h-3.935c-.048 2.945.026 5.282-.037 7.918-.938 2.213-6.726 2-7.864 0v-7.918z" fill="#fff" transform="translate(-250.61 -302.322)"/><path d="m248.222 326.181-.022-4.265c.716-3.2 4.3-4.822 7.89-4.874 3.712-.144 7.544 1.44 8.013 4.848l.005.026v.007.291 7.75h-4.031c-.011-2.737-.023-5.456-.033-8.193-1.108-2.28-6.679-2.218-7.774.14l.01 4.244h-.009c.019 2.467-2.286 3.8-4.5 3.994h-2.664v-2.663c2.281-.006 2.908-.365 3.111-1.31z" fill="#fff" transform="translate(-213.377 -301.323)"/></g></svg>